<svg width="640" height="480" xmlns="http://www.w3.org/2000/svg" xmlns:svg="http://www.w3.org/2000/svg" xmlns:xlink="http://www.w3.org/1999/xlink" >
<g id="valleyball">
   <path d="m85.06807,38.518c-11.14578,11.34615 -11.14578,29.74457 0,41.09073c11.14578,11.34615 29.21929,11.34615 40.36507,0c11.14578,-11.34615 11.14578,-29.74457 0,-41.09073c-11.14578,-11.34615 -29.21929,-11.34615 -40.36507,0z" fill="#EDEDED" id="svg_1" style="--darkreader-inline-fill:#d9d7d3;"/>
   <path class="selected" d="m85.06807,38.518c-6.36996,6.48352 -9.08339,15.27175 -8.17326,23.72814c8.30705,0.92649 16.94008,-1.83572 23.31004,-8.31923c6.36996,-6.48256 9.08339,-15.27175 8.17326,-23.72718c-8.30799,-0.92649 -16.94008,1.83572 -23.31004,8.31923l0,-0.00096z"   fill="#a1cdf8" id="svg_2" style="--darkreader-inline-fill:#c2bdb7;"/>
   <path d="m108.37812,30.19781c-1.42267,-0.15825 -2.85569,-0.19949 -4.28496,-0.14195c0.66799,0.02686 1.33599,0.06714 2.00115,0.14195c0.91013,8.45735 -1.8033,17.24462 -8.17326,23.7291c-5.27799,5.37384 -12.1115,8.18112 -19.02509,8.4631c7.67486,0.30787 15.44958,-2.49846 21.30889,-8.4631c6.36996,-6.48256 9.08339,-15.27175 8.17326,-23.72718l0,-0.00192z" fill="#000000" id="svg_3" opacity="0.35" style="--darkreader-inline-fill:#191b1c;"/>
   <path class="selected" d="m110.29636,64.19983c-6.36902,6.48352 -9.08245,15.27175 -8.17326,23.72814c8.30799,0.92649 16.94008,-1.83572 23.31004,-8.31923c6.36996,-6.48352 9.08339,-15.27175 8.17326,-23.72814c-8.30705,-0.92649 -16.94008,1.83572 -23.3091,8.31923l-0.00094,0z" data-spm-anchor-id="a313x.7781069.0.i51"  fill="#a1cdf8" id="svg_4" style="--darkreader-inline-fill:#c2bdb7;"/>
   <path d="m104.4069,87.92797c-0.91013,-8.45639 1.8033,-17.24462 8.17326,-23.72814c5.27799,-5.37288 12.1115,-8.18208 19.02509,-8.46214c-7.67486,-0.30883 -15.44958,2.4975 -21.30889,8.46214c-6.36902,6.48352 -9.08245,15.27175 -8.17326,23.72814c1.42267,0.15921 2.85569,0.20141 4.28496,0.14386a28.75951,29.27653 0 0 1 -2.00115,-0.14386z" fill="#000000" id="svg_5" opacity="0.35" style="--darkreader-inline-fill:#191b1c;"/>
   <path d="m125.43314,38.518a28.46838,28.98017 0 0 0 -8.47946,-5.95601c0.96101,0.75481 1.88998,1.57292 2.7709,2.46968c11.14578,11.34615 11.14578,29.74457 0,41.09073c-8.62079,8.77577 -21.38709,10.75727 -31.88655,5.95601c11.19383,8.79687 27.33025,7.97971 37.59511,-2.46968c11.14578,-11.34615 11.14578,-29.74457 0,-41.09073z" fill="#000000" id="svg_6" opacity="0.25" style="--darkreader-inline-fill:#191b1c;"/>
   
  <animateTransform attributeType="XML" attributeName="transform" begin="0s" dur="35s" type="rotate" from="0 150 250" to="360 150 250" repeatCount="indefinite"/>

</g>



  <!-- <animateMotion xlink:href="#valleyball" dur="15s" repeatCount="indefinite"    rotate="auto">
    <mpath xlink:href="#svg_12" />
  </animateMotion>  -->

  <g id="sun">
    <path d="m582.676,60.19963m-32.80186,0a32.80186,31.69486 0 1 0 65.60372,0a32.80186,31.69486 0 1 0 -65.60372,0z" fill="#F9C626" id="svg_2" style="--darkreader-inline-fill:#d2b14a;"/>
    <path d="m582.9694,20.30841l-3.00721,0c-1.10078,0 -1.99417,-0.92668 -1.99417,-2.06849l0,-11.41254c0,-1.14181 0.89339,-2.06849 1.99417,-2.06849l3.00721,0c1.10078,0 1.99417,0.92668 1.99417,2.06849l0,11.41254c0,1.14181 -0.89339,2.06849 -1.99417,2.06849zm-29.26775,10.67478l-2.12711,2.20639c-0.77906,0.80809 -2.04203,0.80809 -2.81975,0l-7.77992,-8.06986c-0.77906,-0.80809 -0.77906,-2.11813 0,-2.92484l2.12711,-2.20639c0.77906,-0.80809 2.04203,-0.80809 2.81975,0l7.77992,8.06986c0.77906,0.80809 0.77906,2.11675 0,2.92484zm-12.71083,29.74762l0,3.11928c0,1.14181 -0.89339,2.06849 -1.99417,2.06849l-11.00249,0c-1.10078,0 -1.99417,-0.92668 -1.99417,-2.06849l0,-3.11928c0,-1.14181 0.89339,-2.06849 1.99417,-2.06849l11.00249,0c1.10078,0 1.99417,0.92668 1.99417,2.06849zm11.29098,30.35852l2.12711,2.20639c0.77906,0.80809 0.77906,2.11813 0,2.92484l-7.77992,8.06986c-0.77906,0.80809 -2.04203,0.80809 -2.81975,0l-2.12711,-2.20639c-0.77906,-0.80809 -0.77906,-2.11813 0,-2.92484l7.77992,-8.06986c0.77773,-0.80809 2.0407,-0.80809 2.81975,0zm28.6788,13.18454l3.00721,0c1.10078,0 1.99417,0.92668 1.99417,2.06849l0,11.41254c0,1.14181 -0.89339,2.06849 -1.99417,2.06849l-3.00721,0c-1.10078,0 -1.99417,-0.92668 -1.99417,-2.06849l0,-11.41254c0,-1.14181 0.89339,-2.06849 1.99417,-2.06849zm29.26775,-11.71178l2.12711,-2.20639c0.77906,-0.80809 2.04203,-0.80809 2.81975,0l7.77992,8.06986c0.77906,0.80809 0.77906,2.11813 0,2.92484l-2.12711,2.20639c-0.77906,0.80809 -2.04203,0.80809 -2.81975,0l-7.77992,-8.06986c-0.77906,-0.80671 -0.77906,-2.11675 0,-2.92484zm12.71083,-29.74762l0,-3.11928c0,-1.14181 0.89339,-2.06849 1.99417,-2.06849l11.00249,0c1.10078,0 1.99417,0.92668 1.99417,2.06849l0,3.11928c0,1.14181 -0.89339,2.06849 -1.99417,2.06849l-11.00249,0c-1.10078,0 -1.99417,-0.92668 -1.99417,-2.06849zm-11.29098,-30.35852l-2.12711,-2.20639c-0.77906,-0.80809 -0.77906,-2.11813 0,-2.92484l7.77992,-8.06986c0.77906,-0.80809 2.04203,-0.80809 2.81975,0l2.12711,2.20639c0.77906,0.80809 0.77906,2.11813 0,2.92484l-7.77992,8.06986c-0.77906,0.80809 -2.0407,0.80809 -2.81975,0z" fill="#F9C626" id="svg_1" style="--darkreader-inline-fill:#d2b14a;">
    </path>
  </g>

</svg>